<svg id="Capa_1" data-name="Capa 1" xmlns="http://www.w3.org/2000/svg" viewBox="0 0 238 238"><defs><style>.cls-1{fill:#fff;}.cls-2{fill:#393a3e;}</style></defs><title>iconocorreo</title><circle id="Ellipse_4" data-name="Ellipse 4" class="cls-1" cx="119" cy="119" r="119"/><path id="email" class="cls-2" d="M209.8,105.1v-2.26a15.49,15.49,0,0,0-15.46-15.47H81.74a15.5,15.5,0,0,0-15.47,15.47v76.57a15.49,15.49,0,0,0,15.47,15.46h112.6a15.48,15.48,0,0,0,15.46-15.46V105.1ZM81.74,95.78h112.6a7.06,7.06,0,0,1,7,7.06h0l-56.32,37.55c-3.75,2.49-10.32,2.49-14.07,0L74.68,102.84h0a7.06,7.06,0,0,1,7.06-7Zm112.6,90.68H81.74a7.07,7.07,0,0,1-7.06-7.05V113l51.66,34.43a22.48,22.48,0,0,0,23.4,0L201.39,113v66.46A7.06,7.06,0,0,1,194.34,186.46Z" transform="translate(-19 -22.17)"/></svg>